HIERARCHY
ROOT joint_0
{
	OFFSET 0.000000 0.000000 0.000000
	CHANNELS 6 Xposition Yposition Zposition Zrotation Yrotation Xrotation 
	JOINT joint_1
	{
		OFFSET 6.579712 -2.778931 100.531982
		CHANNELS 3 Zrotation Yrotation Xrotation
		JOINT joint_2
		{
			OFFSET -3.313232 -1.302856 91.974976
			CHANNELS 3 Zrotation Yrotation Xrotation
			JOINT joint_3
			{
				OFFSET -3.421509 -1.641846 91.864014
				CHANNELS 3 Zrotation Yrotation Xrotation
				JOINT joint_4
				{
					OFFSET 7.697388 -4.642578 123.278931
					CHANNELS 3 Zrotation Yrotation Xrotation
					JOINT joint_5
					{
						OFFSET 24.842529 -5.941528 79.695068
						CHANNELS 3 Zrotation Yrotation Xrotation
						End Site
						{
							OFFSET 0.000000 0.000000 0.000000
						}
					}
				}
				JOINT joint_6
				{
					OFFSET -0.159668 -29.112976 68.364014
					CHANNELS 3 Zrotation Yrotation Xrotation
					JOINT joint_7
					{
						OFFSET -18.356079 -115.987061 -20.069092
						CHANNELS 3 Zrotation Yrotation Xrotation
						JOINT joint_8
						{
							OFFSET 31.719482 -11.733276 -267.170898
							CHANNELS 3 Zrotation Yrotation Xrotation
							JOINT joint_9
							{
								OFFSET 29.329956 -5.879517 -234.654053
								CHANNELS 3 Zrotation Yrotation Xrotation
								End Site
								{
									OFFSET 0.000000 0.000000 0.000000
								}
							}
						}
					}
				}
				JOINT joint_10
				{
					OFFSET 8.802979 23.897949 69.798950
					CHANNELS 3 Zrotation Yrotation Xrotation
					JOINT joint_11
					{
						OFFSET 21.159058 115.524292 -19.981934
						CHANNELS 3 Zrotation Yrotation Xrotation
						JOINT joint_12
						{
							OFFSET 18.809204 5.403442 -268.593018
							CHANNELS 3 Zrotation Yrotation Xrotation
							JOINT joint_13
							{
								OFFSET 20.807861 0.421265 -235.639038
								CHANNELS 3 Zrotation Yrotation Xrotation
								End Site
								{
									OFFSET 0.000000 0.000000 0.000000
								}
							}
						}
					}
				}
			}
		}
	}
	JOINT joint_14
	{
		OFFSET -9.713379 -79.513916 -99.348022
		CHANNELS 3 Zrotation Yrotation Xrotation
		JOINT joint_15
		{
			OFFSET -40.607788 -6.518372 -502.938019
			CHANNELS 3 Zrotation Yrotation Xrotation
			JOINT joint_16
			{
				OFFSET -19.807617 -7.437378 -399.590012
				CHANNELS 3 Zrotation Yrotation Xrotation
				JOINT joint_17
				{
					OFFSET 171.701660 -44.751282 -77.782000
					CHANNELS 3 Zrotation Yrotation Xrotation
					End Site
					{
						OFFSET 0.000000 0.000000 0.000000
					}
				}
			}
		}
	}
	JOINT joint_18
	{
		OFFSET 17.854858 79.618652 -98.128052
		CHANNELS 3 Zrotation Yrotation Xrotation
		JOINT joint_19
		{
			OFFSET -24.848877 16.861816 -503.722992
			CHANNELS 3 Zrotation Yrotation Xrotation
			JOINT joint_20
			{
				OFFSET -30.162476 14.470093 -398.750008
				CHANNELS 3 Zrotation Yrotation Xrotation
				JOINT joint_21
				{
					OFFSET 176.096680 -10.987549 -80.021000
					CHANNELS 3 Zrotation Yrotation Xrotation
					End Site
					{
						OFFSET 0.000000 0.000000 0.000000
					}
				}
			}
		}
	}
}
MOTION
Frames: 6
Frame Time: 0.016667
-1035.519653 842.694153 1098.687988 8.762161 -1.200812 -0.504469 -0.086790 -2.872808 -1.275243 0.061304 0.414751 0.230782 0.027811 -0.600898 -0.215970 0.308091 4.194272 -0.103214 0.000000 0.000000 0.000000 -0.939138 4.008968 0.153250 0.074936 3.489347 2.365389 0.223439 -2.296799 1.370472 0.000000 0.000000 0.000000 1.386170 1.470607 2.116105 -0.034997 1.845911 -1.314724 0.088027 0.310926 0.995704 0.000000 0.000000 0.000000 1.784573 1.045842 -0.162712 1.735161 1.236025 0.376615 1.826472 -2.580319 0.155905 0.000000 0.000000 0.000000 -2.010776 1.786491 0.449916 -2.017734 0.759345 -0.041157 -2.018642 -1.241816 -0.994337 0.000000 0.000000 0.000000 
-1035.492188 842.734619 1098.682007 8.756921 -1.203801 -0.504705 -0.086759 -2.878550 -1.276242 0.061584 0.415219 0.230225 0.028087 -0.602570 -0.215649 0.307049 4.189145 -0.100628 0.000000 0.000000 0.000000 -0.938189 4.010208 0.155646 0.074873 3.491006 2.366192 0.223003 -2.297396 1.366693 0.000000 0.000000 0.000000 1.387625 1.472572 2.114716 -0.034912 1.847589 -1.315925 0.088618 0.312892 1.002722 0.000000 0.000000 0.000000 1.786111 1.050018 -0.164751 1.736538 1.237553 0.377090 1.827952 -2.582502 0.156009 0.000000 0.000000 0.000000 -2.008785 1.792411 0.448049 -2.015990 0.759494 -0.041612 -2.017105 -1.245492 -0.993867 0.000000 0.000000 0.000000 
-1035.465332 842.773865 1098.677979 8.750603 -1.206083 -0.504327 -0.086596 -2.885711 -1.277235 0.062053 0.416231 0.230046 0.028519 -0.604048 -0.215649 0.306796 4.184290 -0.100548 0.000000 0.000000 0.000000 -0.940317 4.011259 0.158729 0.074396 3.492721 2.363197 0.222846 -2.297042 1.365458 0.000000 0.000000 0.000000 1.388469 1.475321 2.113414 -0.034778 1.850077 -1.316533 0.088917 0.312133 1.006429 0.000000 0.000000 0.000000 1.788114 1.053773 -0.167306 1.738406 1.237950 0.376910 1.829794 -2.583146 0.156678 0.000000 0.000000 0.000000 -2.006533 1.797460 0.444819 -2.014093 0.760104 -0.040402 -2.015312 -1.249075 -0.993274 0.000000 0.000000 0.000000 
-1035.439941 842.810669 1098.672974 8.744033 -1.208885 -0.503653 -0.086550 -2.892935 -1.278615 0.062461 0.417788 0.230469 0.028851 -0.605482 -0.215995 0.306969 4.180194 -0.101740 0.000000 0.000000 0.000000 -0.943894 4.012437 0.161338 0.073855 3.494336 2.359632 0.222737 -2.296476 1.364665 0.000000 0.000000 0.000000 1.388779 1.478104 2.113362 -0.034698 1.853076 -1.318072 0.089116 0.310545 1.008991 0.000000 0.000000 0.000000 1.790080 1.058371 -0.170020 1.740245 1.237501 0.376748 1.831595 -2.584061 0.157257 0.000000 0.000000 0.000000 -2.004451 1.803144 0.440970 -2.012473 0.760482 -0.038191 -2.013726 -1.253330 -0.992817 0.000000 0.000000 0.000000 
-1035.422363 842.845398 1098.670044 8.737698 -1.211623 -0.503310 -0.086872 -2.899152 -1.279485 0.062426 0.418881 0.230798 0.028742 -0.606514 -0.216697 0.307549 4.178563 -0.103780 0.000000 0.000000 0.000000 -0.946512 4.013329 0.164742 0.073204 3.496088 2.355371 0.222730 -2.296950 1.364575 0.000000 0.000000 0.000000 1.389792 1.480215 2.112957 -0.034601 1.855081 -1.318839 0.089324 0.309862 1.011610 0.000000 0.000000 0.000000 1.792052 1.062206 -0.172376 1.742112 1.237406 0.376468 1.833388 -2.583775 0.158146 0.000000 0.000000 0.000000 -2.002419 1.807895 0.437516 -2.010838 0.761551 -0.035895 -2.012109 -1.256477 -0.992278 0.000000 0.000000 0.000000 
-1035.416992 842.875793 1098.666992 8.732467 -1.215398 -0.503961 -0.087419 -2.900899 -1.279848 0.061979 0.417445 0.231482 0.028277 -0.605722 -0.217459 0.308427 4.176677 -0.106858 0.000000 0.000000 0.000000 -0.950110 4.013699 0.167536 0.072675 3.496866 2.352139 0.222846 -2.299704 1.365123 0.000000 0.000000 0.000000 1.391279 1.480177 2.112442 -0.034558 1.854824 -1.319544 0.089635 0.310466 1.015349 0.000000 0.000000 0.000000 1.793788 1.065986 -0.173192 1.743891 1.238295 0.375622 1.835085 -2.583287 0.159044 0.000000 0.000000 0.000000 -2.000840 1.812530 0.435491 -2.009544 0.763321 -0.033976 -2.010865 -1.259379 -0.991893 0.000000 0.000000 0.000000 
